# xmcd
#
# Track frame offsets:
#	150
#	14866
#	32948
#	49853
#	66521
#	81422
#	96351
#	114216
#	130871
#	148689
#	160800
#	175967
#	190834
#	206854
#	226390
#	240302
#	253490
#
# Disc length: 3545
#
# Revision: 3
# Processed by: cddbd v1.5.1PL0 Copyright (c) Steve Scherf et al.
# Submitted via: audiograbber 1.83.01
# Normalized: r2:DSETVAR1
#
DISCID=000dd711
DTITLE=Various Artist - CDX 351
DYEAR=2004
DGENRE=Country
TTITLE0=Brad Cotter - Can't Tell Me Nothin'
TTITLE1=Pat Green - Don't Break My Heart Again
TTITLE2=Christy Sutherland - Freedom
TTITLE3=Reba McEntire - He Gets That From Me
TTITLE4=Dusty Drake - I'm The Working Man
TTITLE5=Dusty DRAKE - I'm the working man (edit)
TTITLE6=Joe Diffie - If I Could Only Bring You Back
TTITLE7=David Lee Murphy - Inspiration
TTITLE8=Johnny Lee - Lee Anna
TTITLE9=Josh Gracin - Nothin' To loose
TTITLE10=Jimmy Buffett and Martina McBride - Trip Around The Sun
TTITLE11=Lorrie Morgan - Us Girls
TTITLE12=Jim Ed Brown and Helen Cornelius - Who's In The Mood
TTITLE13=Adam Marshall - Come Home As Fast As You Can
TTITLE14=Vince Hatfield - Friday Night Lights
TTITLE15=Chris Campbell - Honky Tonk Lover
TTITLE16=Ricky Dean Morgan - Money Talks
EXTD=
EXTT0=
EXTT1=
EXTT2=
EXTT3=
EXTT4=
EXTT5=
EXTT6=
EXTT7=
EXTT8=
EXTT9=
EXTT10=
EXTT11=
EXTT12=
EXTT13=
EXTT14=
EXTT15=
EXTT16=
PLAYORDER=
